<svg width="198.425" height="154.224" viewBox="0 0 198.425 154.224" xmlns="http://www.w3.org/2000/svg" xmlns:xlink="http://www.w3.org/1999/xlink" overflow="hidden"><path d="M-1.35762 4.09329C7.26362 4.09414 15.0945 7.61663 20.786 13.3055 26.4757 18.9982 29.9981 26.8278 29.999 35.4491L29.999 114.517 30.1436 119.128 32.0422 119.068 30.1432 119.068C30.1423 128.737 34.1019 137.535 40.4684 143.898 46.8313 150.265 55.6289 154.224 65.2984 154.224 74.9678 154.224 83.7658 150.265 90.1292 143.898 96.4951 137.535 100.455 128.737 100.455 119.068L100.455 35.2796 100.455 35.1556C100.455 26.5339 103.977 18.7043 109.667 13.0115 115.359 7.3231 123.189 3.80018 131.811 3.79933 140.433 3.80018 148.263 7.32309 153.954 13.0115 159.644 18.7043 163.167 26.5339 163.167 35.1556L163.167 114.669 163.167 118.944C163.166 128.615 167.126 137.412 173.492 143.775 179.855 150.142 188.653 154.102 198.322 154.101L198.322 150.301C189.701 150.301 181.87 146.778 176.178 141.089 170.489 135.397 166.966 127.566 166.966 118.945L166.967 114.67 166.967 35.1556C166.967 25.4866 163.007 16.6882 156.641 10.3256 150.278 3.95965 141.48-0.0009556 131.811 0 122.141-0.0009556 113.344 3.95965 106.981 10.3256 100.614 16.6882 96.6546 25.4866 96.655 35.1556L96.655 35.2796 96.655 119.068C96.6546 127.689 93.1317 135.519 87.4424 141.212 81.7505 146.901 73.9205 150.424 65.2984 150.424 56.6771 150.424 48.8466 146.901 43.1547 141.212 37.465 135.519 33.9426 127.689 33.9426 119.068L33.9426 119.038 33.7984 114.46 33.7984 35.4491C33.7984 25.7805 29.8388 16.982 23.4732 10.6196 17.1094 4.2535 8.31179 0.293001-1.35762 0.293852-1.35762 0.293852-1.35762 4.09329-1.35762 4.09329Z" fill="#F4D9DC"/></svg>