<?xml version="1.0" encoding="UTF-8" standalone="no"?><svg xmlns="http://www.w3.org/2000/svg" xmlns:xlink="http://www.w3.org/1999/xlink" contentScriptType="text/ecmascript" fill="#dd784b" width="258.6" zoomAndPan="magnify" contentStyleType="text/css" viewBox="2.6 1.6 258.6 485.9" height="485.9" preserveAspectRatio="xMidYMid meet" version="1"><g id="change1_1"><path fill="inherit" d="m150.51 487.45s6.432-181.14 6.995-195.63c0.77699-20.018 5.824-107.27 5.795-109.1-0.052002-3.21-0.084-3.324-0.937-3.324-2.777 0.36-5.302 1.766-8.087 2.091-3.868-0.84-7.521-2.918-10.78-5.134-1.987-2.246-0.727-6 0.312-8.723 0.233-0.61101 1.172-2.41 1.741-4.185 3.232-10.082 2.809-9.182 4.791-10.215 3.287-1.046 6.39 1.586 8.908 3.535l1.385 1.107c3.721-1.449 7.702-2.137 11.325-3.824 0.090988-0.063004-0.59201-0.89-1.519-1.838-1.515-1.548-4.512-3.512-10.341-6.775-1.089-0.60899-12.356-9.275-15.556-12.261-3.633-3.392-7.004-6.799-15.67-15.838-11.07-11.546-16.715-17.148-42.072-41.752-2.762-2.68-23.323-21.331-25.267-23.084-3.577-3.227-51.629-44.48-52.903-45.595-2.544-2.229-3.11-3.016-2.783-3.87 0.55499-1.447 5.948 0.48499 11.066 3.965 1.508 1.025 50.059 39.074 52.901 41.294 1.358 1.061 28.964 24.182 30.574 25.327 1.835 1.303 28.796 24.677 31.712 27.44 1.598 1.515 37.683 33.328 44.17 39.138 3.4 3.047 5.762 4.865 6.791 5.228 0.868 0.306 1.764 0.701 1.991 0.877 0.227 0.175 0.80701 0.416 1.288 0.534 1.099 0.27 3.296-1.549 3.67-3.038 0.489-1.949 5.843-12.455 7.293-14.311 2.459-3.149 23.759-21.069 25.785-22.635 2.026-1.567 24.642-19.357 25.458-20.037 6.536-5.439 10.647-8.561 11.525-8.754 0.76099-0.166 1.152 0.655 1.159 2.43 0.006989 1.894-1.924 5.073-5.548 9.136-1.332 1.494-21.999 25.79-23.413 27.265-1.413 1.476-21.707 24.222-25.849 28.371l-7.53 7.543-0.331 2.185c-0.59801 3.941-0.94101 4.873-2.368 6.442-0.931 1.13-1.061 2.526-0.87701 3.955 0.15701 1.214 0.688 4.244 1.547 7.36 0.28699 1.044 8.046 30.212 8.322 31.524 0.336 1.598 19.927 59.221 20.364 60.579 0.438 1.357 16.988 61.139 17.255 62.288 4.787 17.514 8.581 35.28 12.601 52.982 0.43001 1.992 1.229 7.053 1.618 10.642-0.03299 0.34497-0.21298 0.56299-0.54498 0.56299-0.32001 0-0.67801-0.29901-0.79701-0.66501s-0.815-2.203-1.547-4.083c-1.773-4.553-3.288-9.222-4.662-14.372-0.62199-2.331-10.759-37.994-11.802-41.649-1.043-3.656-18.644-61.5-19.736-64.947-5.416-17.087-20.269-60.238-22.421-65.136-3.652-8.734-6.793-17.68-10.65-26.327-1.217-2.617-1.859-3.382-2.708-3.983-0.827-0.586-1.671-1.009-1.876-0.94099-0.20401 0.067993-0.83101 1.231-1.393 2.584-1.01 2.431-1.02 2.547-0.89 9.866 0.072998 4.074 5.974 110.06 6.126 116.22l4.679 189.52-38.289 0.031006z"/></g><g id="change1_2"><path fill="inherit" d="m82.355 485.45s3.5366-98.955 3.8461-106.87c0.4272-10.936 3.2023-58.602 3.1864-59.6-0.028603-1.754-0.046204-1.816-0.5152-1.816-1.527 0.19598-2.9153 0.96399-4.4466 1.142-2.1268-0.45902-4.1354-1.594-5.9273-2.805-1.0926-1.227-0.3998-3.278 0.17149-4.765 0.1281-0.33402 0.6444-1.317 0.95731-2.286 1.7771-5.508 1.5445-5.016 2.6343-5.581 1.8073-0.57098 3.5135 0.867 4.898 1.931l0.7615 0.605c2.046-0.79102 4.2349-1.167 6.227-2.089 0.050003-0.033997-0.3255-0.48599-0.8352-1.004-0.833-0.84598-2.4809-1.919-5.6859-3.701-0.5988-0.33301-6.7939-5.067-8.5534-6.698-1.9976-1.853-3.8511-3.715-8.6161-8.653-6.0867-6.307-9.1906-9.367-23.133-22.809-1.5187-1.464-12.824-11.653-13.893-12.61-1.9668-1.763-28.388-24.3-29.088-24.909-1.3988-1.217-1.71-1.647-1.5302-2.114 0.30516-0.79001 3.2705 0.265 6.0846 2.166 0.82917 0.56 27.525 21.346 29.087 22.559 0.7467 0.58 15.926 13.211 16.811 13.836 1.0089 0.71201 15.833 13.481 17.437 14.99 0.8787 0.828 20.72 18.207 24.287 21.381 1.8695 1.665 3.1682 2.658 3.7338 2.856 0.477 0.168 0.97 0.383 1.095 0.48001 0.125 0.095001 0.444 0.22699 0.708 0.29098 0.604 0.14801 1.812-0.84598 2.018-1.659 0.269-1.065 3.213-6.804 4.01-7.818 1.352-1.721 13.064-11.51 14.178-12.366 1.114-0.85602 13.549-10.574 13.998-10.946 3.594-2.971 5.854-4.677 6.337-4.782 0.418-0.091003 0.633 0.358 0.63699 1.327 0.004013 1.035-1.058 2.772-3.051 4.991-0.732 0.81601-12.096 14.089-12.873 14.895s-11.936 13.232-14.213 15.499l-4.14 4.121-0.182 1.193c-0.329 2.153-0.518 2.662-1.302 3.52-0.512 0.617-0.584 1.38-0.483 2.16 0.087006 0.66299 0.379 2.319 0.85101 4.021 0.158 0.57001 4.424 16.505 4.576 17.221 0.185 0.87299 10.957 32.353 11.197 33.095 0.241 0.741 9.341 33.4 9.487 34.027 2.633 9.568 4.719 19.274 6.929 28.944 0.237 1.088 0.676 3.853 0.89 5.814-0.018005 0.18799-0.117 0.30698-0.3 0.30698-0.176 0-0.373-0.16299-0.43799-0.36298-0.06601-0.20001-0.44801-1.203-0.85101-2.23-0.97499-2.488-1.808-5.038-2.563-7.852-0.34201-1.273-5.916-20.756-6.489-22.753-0.574-1.997-10.252-33.597-10.852-35.48-2.978-9.334-11.145-32.908-12.328-35.583-2.008-4.772-3.735-9.659-5.856-14.383-0.669-1.429-1.022-1.847-1.489-2.176-0.4547-0.32001-0.9188-0.55102-1.0315-0.51401-0.11221 0.036987-0.457 0.673-0.76601 1.412-0.5553 1.328-0.5608 1.391-0.4893 5.39 0.0401 2.225 3.2848 60.123 3.3688 63.491l2.572 103.54-21.053 0.016998z"/></g><path fill="none" d="M28.57 305.46L28.57 306.13" transform="rotate(20 28.57 305.8)"/></svg>